<svg width="128" height="128" viewBox="0 0 128 128" fill="none" xmlns="http://www.w3.org/2000/svg">
<path opacity="0.35" d="M94.2713 116.425C83.8886 116.425 75.191 112.586 69.1227 105.326C67.9009 103.865 66.8087 102.297 65.8428 100.621C64.4899 102.962 62.8328 105.123 60.8808 107.075C54.7625 113.193 46.4192 116.425 36.7479 116.425C26.3651 116.425 17.6676 112.586 11.5993 105.326C5.89607 98.51 3 89.3365 3 78.0628C3 70.0565 4.28263 61.6882 6.81201 53.1919C9.42409 44.4054 14.8807 34.7966 23.0306 24.6385L23.2584 24.356C27.5963 19.1553 32.5817 16.0954 38.0742 15.2621C39.2258 15.0874 40.3758 15 41.4915 15C45.8496 15 49.9721 16.3622 53.4112 18.9384C57.9082 22.3073 60.564 27.1913 61.0914 33.0645C61.6063 38.6991 59.6543 44.3648 55.2884 49.8917L55.0637 50.1616C54.0307 51.3569 53.1132 52.5599 52.3205 53.7614C55.6972 55.3873 58.7196 57.5547 61.3598 60.251C61.6812 60.5803 61.9933 60.9158 62.2991 61.2559C62.85 58.5861 63.5287 55.896 64.3339 53.1934C66.9506 44.4023 72.4057 34.7966 80.5525 24.64L80.7803 24.3576C85.1182 19.1569 90.1036 16.0969 95.5961 15.2637C96.7477 15.0889 97.8977 15.0016 99.0133 15.0016C103.371 15.0016 107.494 16.3638 110.933 18.94C115.43 22.3088 118.086 27.1944 118.613 33.0661C119.128 38.7006 117.176 44.3664 112.81 49.8932L112.586 50.1632C111.553 51.3584 110.635 52.5615 109.842 53.7614C113.219 55.3873 116.242 57.5547 118.882 60.251C124.764 66.271 127.743 74.0885 127.743 83.4914C127.743 92.8053 124.513 100.961 118.401 107.078C112.284 113.193 103.941 116.425 94.2713 116.425Z" fill="black"/>
<path d="M91.2713 113.425C80.8886 113.425 72.191 109.586 66.1227 102.326C64.9009 100.865 63.8087 99.2971 62.8428 97.6212C61.4899 99.9618 59.8328 102.123 57.8808 104.075C51.7625 110.193 43.4192 113.425 33.7479 113.425C23.3651 113.425 14.6676 109.586 8.59926 102.326C2.89607 95.51 0 86.3365 0 75.0628C0 67.0565 1.28263 58.6882 3.81201 50.1919C6.42409 41.4054 11.8807 31.7966 20.0306 21.6385L20.2584 21.356C24.5963 16.1553 29.5817 13.0954 35.0742 12.2621C36.2258 12.0874 37.3758 12 38.4915 12C42.8496 12 46.9721 13.3622 50.4112 15.9384C54.9082 19.3073 57.564 24.1913 58.0914 30.0645C58.6063 35.6991 56.6543 41.3648 52.2884 46.8917L52.0637 47.1616C51.0307 48.3569 50.1132 49.5599 49.3205 50.7614C52.6972 52.3873 55.7196 54.5547 58.3598 57.251C58.6812 57.5803 58.9933 57.9158 59.2991 58.2559C59.85 55.5861 60.5287 52.896 61.3339 50.1934C63.9506 41.4023 69.4057 31.7966 77.5525 21.64L77.7803 21.3576C82.1182 16.1569 87.1036 13.0969 92.5961 12.2637C93.7477 12.0889 94.8977 12.0016 96.0133 12.0016C100.371 12.0016 104.494 13.3638 107.933 15.94C112.43 19.3088 115.086 24.1944 115.613 30.0661C116.128 35.7006 114.176 41.3664 109.81 46.8932L109.586 47.1632C108.553 48.3584 107.635 49.5615 106.842 50.7614C110.219 52.3873 113.242 54.5547 115.882 57.251C121.764 63.271 124.743 71.0885 124.743 80.4914C124.743 89.8053 121.513 97.9614 115.401 104.078C109.284 110.193 100.941 113.425 91.2713 113.425Z" fill="#F2F2F2"/>
<path d="M28.8869 28.7091C31.602 25.4526 34.4512 23.6004 37.4347 23.1463C40.4181 22.6969 42.9959 23.2821 45.1695 24.9111C47.3384 26.537 48.5602 28.8448 48.8286 31.8298C49.1016 34.8133 47.8799 38.0277 45.1695 41.4636C42.8149 44.1771 40.9143 46.9827 39.471 49.8741C38.0198 52.7701 36.9369 55.5726 36.2145 58.2861C42.7275 58.8291 47.9688 61.1353 51.9509 65.2048C55.9252 69.2759 57.9178 74.6592 57.9178 81.3485C57.9178 88.0441 55.791 93.5164 51.5436 97.7653C47.2932 102.014 41.6399 104.139 34.5854 104.139C27.1658 104.139 21.3784 101.655 17.2199 96.6777C13.0568 91.7048 10.98 84.7845 10.98 75.92C10.98 68.8655 12.1097 61.541 14.3707 53.942C16.6286 46.3445 21.4673 37.934 28.8869 28.7091ZM86.4088 28.7091C89.1239 25.4526 91.9731 23.6004 94.9566 23.1463C97.94 22.6969 100.518 23.2821 102.691 24.9111C104.862 26.537 106.082 28.8448 106.35 31.8298C106.624 34.8133 105.402 38.0277 102.691 41.4636C100.337 44.1771 98.4362 46.9827 96.9929 49.8741C95.5417 52.7701 94.4588 55.5726 93.7363 58.2861C100.249 58.8291 105.491 61.1353 109.473 65.2048C113.452 69.2759 115.44 74.6592 115.44 81.3485C115.44 88.0441 113.313 93.5164 109.066 97.7653C104.815 102.014 99.1618 104.139 92.1089 104.139C84.6892 104.139 78.9018 101.655 74.7434 96.6777C70.5803 91.7048 68.5034 84.7845 68.5034 75.92C68.5034 68.8655 69.6331 61.541 71.8941 53.942C74.1551 46.3429 78.9907 37.934 86.4088 28.7091Z" fill="#70BFFF"/>
<path d="M92.0095 105.824C83.8971 105.824 77.4511 103.031 72.848 97.5225C68.3463 92.1454 66.0635 84.6556 66.0635 75.2636C66.0635 68.0126 67.2369 60.3932 69.5509 52.6178C71.8899 44.7582 76.9159 35.9998 84.4853 26.5844C84.4947 26.5735 84.5041 26.5626 84.5119 26.5517C87.5921 22.8598 90.9531 20.7127 94.5061 20.1744C98.1246 19.6267 101.312 20.371 103.995 22.3808C106.71 24.4155 108.253 27.3022 108.582 30.9629C108.91 34.5486 107.512 38.3497 104.427 42.2553C102.143 44.8939 100.336 47.5591 98.9875 50.2601C98.07 52.0889 97.3023 53.8942 96.6906 55.6512C102.462 56.628 107.282 59.0622 111.046 62.907C115.448 67.4118 117.681 73.3943 117.681 80.6891C117.681 87.9932 115.306 94.074 110.622 98.7614C105.934 103.449 99.6741 105.824 92.0095 105.824ZM88.1195 29.5351C80.937 38.4683 76.1997 46.6821 74.037 53.952C71.8525 61.2951 70.7446 68.4635 70.7446 75.2621C70.7446 83.5259 72.6608 90.0046 76.4384 94.5172C80.1631 98.9736 85.2546 101.141 92.0095 101.141C98.4773 101.141 103.483 99.2795 107.314 95.4503C111.141 91.6195 113.003 86.7917 113.003 80.6891C113.003 74.5755 111.269 69.8304 107.704 66.1807C104.096 62.4935 99.4307 60.4587 93.445 59.9594C92.7554 59.9017 92.125 59.5412 91.7271 58.9764C91.3276 58.41 91.1996 57.6969 91.376 57.0259C92.1359 54.1642 93.2906 51.1823 94.8026 48.1661C96.3239 45.1186 98.3493 42.1243 100.824 39.2703C103.071 36.4211 104.137 33.7388 103.92 31.3842C103.712 29.067 102.818 27.3475 101.188 26.1257C99.5258 24.8805 97.5676 24.4467 95.2067 24.8025C92.8256 25.166 90.4413 26.7576 88.1195 29.5351ZM34.4861 105.824C26.3736 105.824 19.9277 103.031 15.3246 97.5225C10.8229 92.1454 8.54004 84.6556 8.54004 75.2636C8.54004 68.0126 9.71344 60.3932 12.0275 52.6178C14.3618 44.7644 19.3862 36.006 26.9619 26.5844C26.9713 26.5735 26.9806 26.5626 26.9884 26.5517C30.0686 22.8598 33.4297 20.7127 36.9827 20.1744C40.5996 19.6267 43.789 20.371 46.4713 22.3808C49.1864 24.4155 50.7296 27.3022 51.0589 30.9629C51.3865 34.5486 49.9884 38.3497 46.9036 42.2553C44.6192 44.8939 42.8122 47.5591 41.4641 50.2601C40.5481 52.0873 39.7789 53.8927 39.1672 55.6528C44.9406 56.6296 49.7591 59.0638 53.5227 62.907C57.9245 67.418 60.1574 73.4005 60.1574 80.6891C60.1574 87.9932 57.7825 94.074 53.0983 98.7614C48.4124 103.449 42.1506 105.824 34.4861 105.824ZM30.5976 29.5351C23.4136 38.473 18.6732 46.6884 16.5151 53.952C14.3306 61.2951 13.2227 68.4651 13.2227 75.2636C13.2227 83.5274 15.1389 90.0061 18.9166 94.5187C22.6412 98.9752 27.7327 101.143 34.4876 101.143C40.9554 101.143 45.9611 99.281 49.7918 95.4518C53.6194 91.6211 55.481 86.7933 55.481 80.6906C55.481 74.5802 53.7474 69.8351 50.1804 66.1807C46.5728 62.495 41.9088 60.4587 35.9216 59.9594C35.2319 59.9017 34.6015 59.5412 34.2021 58.9748C33.8026 58.4084 33.6762 57.6937 33.8541 57.0243C34.6156 54.161 35.7702 51.1792 37.2807 48.1661C38.8021 45.1186 40.8274 42.1243 43.3022 39.2703C45.5492 36.4211 46.6149 33.7388 46.398 31.3842C46.1905 29.067 45.2964 27.3475 43.6658 26.1257C42.004 24.8805 40.0488 24.4467 37.6848 24.8025C35.3037 25.166 32.9179 26.7576 30.5976 29.5351Z" fill="#40396E"/>
</svg>
